<svg xmlns="http://www.w3.org/2000/svg" viewBox="0 0 750 106" width="750" height="106">
<rect width="100%" height="100%" fill="#0d1117"/><rect x="4" y="4" width="11" height="11" rx="2" ry="2" fill="#161b22"><title>2025-08-10</title></rect><rect x="4" y="18" width="11" height="11" rx="2" ry="2" fill="#161b22"><title>2025-08-11</title></rect><rect x="4" y="32" width="11" height="11" rx="2" ry="2" fill="#161b22"><title>2025-08-12</title></rect><rect x="4" y="46" width="11" height="11" rx="2" ry="2" fill="#161b22"><title>2025-08-13</title></rect><rect x="4" y="60" width="11" height="11" rx="2" ry="2" fill="#161b22"><title>2025-08-14</title></rect><rect x="4" y="74" width="11" height="11" rx="2" ry="2" fill="#161b22"><title>2025-08-15</title></rect><rect x="4" y="88" width="11" height="11" rx="2" ry="2" fill="#161b22"><title>2025-08-16</title></rect><rect x="18" y="4" width="11" height="11" rx="2" ry="2" fill="#161b22"><title>2025-08-17</title></rect><rect x="18" y="18" width="11" height="11" rx="2" ry="2" fill="#161b22"><title>2025-08-18</title></rect><rect x="18" y="32" width="11" height="11" rx="2" ry="2" fill="#161b22"><title>2025-08-19</title></rect><rect x="18" y="46" width="11" height="11" rx="2" ry="2" fill="#161b22"><title>2025-08-20</title></rect><rect x="18" y="60" width="11" height="11" rx="2" ry="2" fill="#161b22"><title>2025-08-21</title></rect><rect x="18" y="74" width="11" height="11" rx="2" ry="2" fill="#161b22"><title>2025-08-22</title></rect><rect x="18" y="88" width="11" height="11" rx="2" ry="2" fill="#161b22"><title>2025-08-23</title></rect><rect x="32" y="4" width="11" height="11" rx="2" ry="2" fill="#161b22"><title>2025-08-24</title></rect><rect x="32" y="18" width="11" height="11" rx="2" ry="2" fill="#161b22"><title>2025-08-25</title></rect><rect x="32" y="32" width="11" height="11" rx="2" ry="2" fill="#161b22"><title>2025-08-26</title></rect><rect x="32" y="46" width="11" height="11" rx="2" ry="2" fill="#161b22"><title>2025-08-27</title></rect><rect x="32" y="60" width="11" height="11" rx="2" ry="2" fill="#161b22"><title>2025-08-28</title></rect><rect x="32" y="74" width="11" height="11" rx="2" ry="2" fill="#161b22"><title>2025-08-29</title></rect><rect x="32" y="88" width="11" height="11" rx="2" ry="2" fill="#161b22"><title>2025-08-30</title></rect><rect x="46" y="4" width="11" height="11" rx="2" ry="2" fill="#161b22"><title>2025-08-31</title></rect><rect x="46" y="18" width="11" height="11" rx="2" ry="2" fill="#161b22"><title>2025-09-01</title></rect><rect x="46" y="32" width="11" height="11" rx="2" ry="2" fill="#161b22"><title>2025-09-02</title></rect><rect x="46" y="46" width="11" height="11" rx="2" ry="2" fill="#161b22"><title>2025-09-03</title></rect><rect x="46" y="60" width="11" height="11" rx="2" ry="2" fill="#161b22"><title>2025-09-04</title></rect><rect x="46" y="74" width="11" height="11" rx="2" ry="2" fill="#161b22"><title>2025-09-05</title></rect><rect x="46" y="88" width="11" height="11" rx="2" ry="2" fill="#161b22"><title>2025-09-06</title></rect><rect x="60" y="4" width="11" height="11" rx="2" ry="2" fill="#161b22"><title>2025-09-07</title></rect><rect x="60" y="18" width="11" height="11" rx="2" ry="2" fill="#161b22"><title>2025-09-08</title></rect><rect x="60" y="32" width="11" height="11" rx="2" ry="2" fill="#161b22"><title>2025-09-09</title></rect><rect x="60" y="46" width="11" height="11" rx="2" ry="2" fill="#161b22"><title>2025-09-10</title></rect><rect x="60" y="60" width="11" height="11" rx="2" ry="2" fill="#161b22"><title>2025-09-11</title></rect><rect x="60" y="74" width="11" height="11" rx="2" ry="2" fill="#161b22"><title>2025-09-12</title></rect><rect x="60" y="88" width="11" height="11" rx="2" ry="2" fill="#161b22"><title>2025-09-13</title></rect><rect x="74" y="4" width="11" height="11" rx="2" ry="2" fill="#161b22"><title>2025-09-14</title></rect><rect x="74" y="18" width="11" height="11" rx="2" ry="2" fill="#161b22"><title>2025-09-15</title></rect><rect x="74" y="32" width="11" height="11" rx="2" ry="2" fill="#161b22"><title>2025-09-16</title></rect><rect x="74" y="46" width="11" height="11" rx="2" ry="2" fill="#161b22"><title>2025-09-17</title></rect><rect x="74" y="60" width="11" height="11" rx="2" ry="2" fill="#161b22"><title>2025-09-18</title></rect><rect x="74" y="74" width="11" height="11" rx="2" ry="2" fill="#161b22"><title>2025-09-19</title></rect><rect x="74" y="88" width="11" height="11" rx="2" ry="2" fill="#161b22"><title>2025-09-20</title></rect><rect x="88" y="4" width="11" height="11" rx="2" ry="2" fill="#161b22"><title>2025-09-21</title></rect><rect x="88" y="18" width="11" height="11" rx="2" ry="2" fill="#161b22"><title>2025-09-22</title></rect><rect x="88" y="32" width="11" height="11" rx="2" ry="2" fill="#161b22"><title>2025-09-23</title></rect><rect x="88" y="46" width="11" height="11" rx="2" ry="2" fill="#161b22"><title>2025-09-24</title></rect><rect x="88" y="60" width="11" height="11" rx="2" ry="2" fill="#161b22"><title>2025-09-25</title></rect><rect x="88" y="74" width="11" height="11" rx="2" ry="2" fill="#161b22"><title>2025-09-26</title></rect><rect x="88" y="88" width="11" height="11" rx="2" ry="2" fill="#161b22"><title>2025-09-27</title></rect><rect x="102" y="4" width="11" height="11" rx="2" ry="2" fill="#161b22"><title>2025-09-28</title></rect><rect x="102" y="18" width="11" height="11" rx="2" ry="2" fill="#161b22"><title>2025-09-29</title></rect><rect x="102" y="32" width="11" height="11" rx="2" ry="2" fill="#161b22"><title>2025-09-30</title></rect><rect x="102" y="46" width="11" height="11" rx="2" ry="2" fill="#161b22"><title>2025-10-01</title></rect><rect x="102" y="60" width="11" height="11" rx="2" ry="2" fill="#161b22"><title>2025-10-02</title></rect><rect x="102" y="74" width="11" height="11" rx="2" ry="2" fill="#161b22"><title>2025-10-03</title></rect><rect x="102" y="88" width="11" height="11" rx="2" ry="2" fill="#161b22"><title>2025-10-04</title></rect><rect x="116" y="4" width="11" height="11" rx="2" ry="2" fill="#161b22"><title>2025-10-05</title></rect><rect x="116" y="18" width="11" height="11" rx="2" ry="2" fill="#161b22"><title>2025-10-06</title></rect><rect x="116" y="32" width="11" height="11" rx="2" ry="2" fill="#161b22"><title>2025-10-07</title></rect><rect x="116" y="46" width="11" height="11" rx="2" ry="2" fill="#161b22"><title>2025-10-08</title></rect><rect x="116" y="60" width="11" height="11" rx="2" ry="2" fill="#161b22"><title>2025-10-09</title></rect><rect x="116" y="74" width="11" height="11" rx="2" ry="2" fill="#161b22"><title>2025-10-10</title></rect><rect x="116" y="88" width="11" height="11" rx="2" ry="2" fill="#161b22"><title>2025-10-11</title></rect><rect x="130" y="4" width="11" height="11" rx="2" ry="2" fill="#161b22"><title>2025-10-12</title></rect><rect x="130" y="18" width="11" height="11" rx="2" ry="2" fill="#161b22"><title>2025-10-13</title></rect><rect x="130" y="32" width="11" height="11" rx="2" ry="2" fill="#161b22"><title>2025-10-14</title></rect><rect x="130" y="46" width="11" height="11" rx="2" ry="2" fill="#161b22"><title>2025-10-15</title></rect><rect x="130" y="60" width="11" height="11" rx="2" ry="2" fill="#161b22"><title>2025-10-16</title></rect><rect x="130" y="74" width="11" height="11" rx="2" ry="2" fill="#161b22"><title>2025-10-17</title></rect><rect x="130" y="88" width="11" height="11" rx="2" ry="2" fill="#161b22"><title>2025-10-18</title></rect><rect x="144" y="4" width="11" height="11" rx="2" ry="2" fill="#161b22"><title>2025-10-19</title></rect><rect x="144" y="18" width="11" height="11" rx="2" ry="2" fill="#161b22"><title>2025-10-20</title></rect><rect x="144" y="32" width="11" height="11" rx="2" ry="2" fill="#161b22"><title>2025-10-21</title></rect><rect x="144" y="46" width="11" height="11" rx="2" ry="2" fill="#161b22"><title>2025-10-22</title></rect><rect x="144" y="60" width="11" height="11" rx="2" ry="2" fill="#161b22"><title>2025-10-23</title></rect><rect x="144" y="74" width="11" height="11" rx="2" ry="2" fill="#161b22"><title>2025-10-24</title></rect><rect x="144" y="88" width="11" height="11" rx="2" ry="2" fill="#161b22"><title>2025-10-25</title></rect><rect x="158" y="4" width="11" height="11" rx="2" ry="2" fill="#161b22"><title>2025-10-26</title></rect><rect x="158" y="18" width="11" height="11" rx="2" ry="2" fill="#161b22"><title>2025-10-27</title></rect><rect x="158" y="32" width="11" height="11" rx="2" ry="2" fill="#161b22"><title>2025-10-28</title></rect><rect x="158" y="46" width="11" height="11" rx="2" ry="2" fill="#161b22"><title>2025-10-29</title></rect><rect x="158" y="60" width="11" height="11" rx="2" ry="2" fill="#161b22"><title>2025-10-30</title></rect><rect x="158" y="74" width="11" height="11" rx="2" ry="2" fill="#161b22"><title>2025-10-31</title></rect><rect x="158" y="88" width="11" height="11" rx="2" ry="2" fill="#161b22"><title>2025-11-01</title></rect><rect x="172" y="4" width="11" height="11" rx="2" ry="2" fill="#161b22"><title>2025-11-02</title></rect><rect x="172" y="18" width="11" height="11" rx="2" ry="2" fill="#161b22"><title>2025-11-03</title></rect><rect x="172" y="32" width="11" height="11" rx="2" ry="2" fill="#161b22"><title>2025-11-04</title></rect><rect x="172" y="46" width="11" height="11" rx="2" ry="2" fill="#161b22"><title>2025-11-05</title></rect><rect x="172" y="60" width="11" height="11" rx="2" ry="2" fill="#161b22"><title>2025-11-06</title></rect><rect x="172" y="74" width="11" height="11" rx="2" ry="2" fill="#161b22"><title>2025-11-07</title></rect><rect x="172" y="88" width="11" height="11" rx="2" ry="2" fill="#161b22"><title>2025-11-08</title></rect><rect x="186" y="4" width="11" height="11" rx="2" ry="2" fill="#161b22"><title>2025-11-09</title></rect><rect x="186" y="18" width="11" height="11" rx="2" ry="2" fill="#161b22"><title>2025-11-10</title></rect><rect x="186" y="32" width="11" height="11" rx="2" ry="2" fill="#161b22"><title>2025-11-11</title></rect><rect x="186" y="46" width="11" height="11" rx="2" ry="2" fill="#161b22"><title>2025-11-12</title></rect><rect x="186" y="60" width="11" height="11" rx="2" ry="2" fill="#161b22"><title>2025-11-13</title></rect><rect x="186" y="74" width="11" height="11" rx="2" ry="2" fill="#161b22"><title>2025-11-14</title></rect><rect x="186" y="88" width="11" height="11" rx="2" ry="2" fill="#161b22"><title>2025-11-15</title></rect><rect x="200" y="4" width="11" height="11" rx="2" ry="2" fill="#161b22"><title>2025-11-16</title></rect><rect x="200" y="18" width="11" height="11" rx="2" ry="2" fill="#161b22"><title>2025-11-17</title></rect><rect x="200" y="32" width="11" height="11" rx="2" ry="2" fill="#161b22"><title>2025-11-18</title></rect><rect x="200" y="46" width="11" height="11" rx="2" ry="2" fill="#161b22"><title>2025-11-19</title></rect><rect x="200" y="60" width="11" height="11" rx="2" ry="2" fill="#161b22"><title>2025-11-20</title></rect><rect x="200" y="74" width="11" height="11" rx="2" ry="2" fill="#161b22"><title>2025-11-21</title></rect><rect x="200" y="88" width="11" height="11" rx="2" ry="2" fill="#161b22"><title>2025-11-22</title></rect><rect x="214" y="4" width="11" height="11" rx="2" ry="2" fill="#161b22"><title>2025-11-23</title></rect><rect x="214" y="18" width="11" height="11" rx="2" ry="2" fill="#161b22"><title>2025-11-24</title></rect><rect x="214" y="32" width="11" height="11" rx="2" ry="2" fill="#161b22"><title>2025-11-25</title></rect><rect x="214" y="46" width="11" height="11" rx="2" ry="2" fill="#161b22"><title>2025-11-26</title></rect><rect x="214" y="60" width="11" height="11" rx="2" ry="2" fill="#161b22"><title>2025-11-27</title></rect><rect x="214" y="74" width="11" height="11" rx="2" ry="2" fill="#161b22"><title>2025-11-28</title></rect><rect x="214" y="88" width="11" height="11" rx="2" ry="2" fill="#161b22"><title>2025-11-29</title></rect><rect x="228" y="4" width="11" height="11" rx="2" ry="2" fill="#161b22"><title>2025-11-30</title></rect><rect x="228" y="18" width="11" height="11" rx="2" ry="2" fill="#161b22"><title>2025-12-01</title></rect><rect x="228" y="32" width="11" height="11" rx="2" ry="2" fill="#161b22"><title>2025-12-02</title></rect><rect x="228" y="46" width="11" height="11" rx="2" ry="2" fill="#161b22"><title>2025-12-03</title></rect><rect x="228" y="60" width="11" height="11" rx="2" ry="2" fill="#161b22"><title>2025-12-04</title></rect><rect x="228" y="74" width="11" height="11" rx="2" ry="2" fill="#161b22"><title>2025-12-05</title></rect><rect x="228" y="88" width="11" height="11" rx="2" ry="2" fill="#161b22"><title>2025-12-06</title></rect><rect x="242" y="4" width="11" height="11" rx="2" ry="2" fill="#161b22"><title>2025-12-07</title></rect><rect x="242" y="18" width="11" height="11" rx="2" ry="2" fill="#161b22"><title>2025-12-08</title></rect><rect x="242" y="32" width="11" height="11" rx="2" ry="2" fill="#161b22"><title>2025-12-09</title></rect><rect x="242" y="46" width="11" height="11" rx="2" ry="2" fill="#161b22"><title>2025-12-10</title></rect><rect x="242" y="60" width="11" height="11" rx="2" ry="2" fill="#161b22"><title>2025-12-11</title></rect><rect x="242" y="74" width="11" height="11" rx="2" ry="2" fill="#161b22"><title>2025-12-12</title></rect><rect x="242" y="88" width="11" height="11" rx="2" ry="2" fill="#161b22"><title>2025-12-13</title></rect><rect x="256" y="4" width="11" height="11" rx="2" ry="2" fill="#161b22"><title>2025-12-14</title></rect><rect x="256" y="18" width="11" height="11" rx="2" ry="2" fill="#161b22"><title>2025-12-15</title></rect><rect x="256" y="32" width="11" height="11" rx="2" ry="2" fill="#161b22"><title>2025-12-16</title></rect><rect x="256" y="46" width="11" height="11" rx="2" ry="2" fill="#161b22"><title>2025-12-17</title></rect><rect x="256" y="60" width="11" height="11" rx="2" ry="2" fill="#161b22"><title>2025-12-18</title></rect><rect x="256" y="74" width="11" height="11" rx="2" ry="2" fill="#161b22"><title>2025-12-19</title></rect><rect x="256" y="88" width="11" height="11" rx="2" ry="2" fill="#161b22"><title>2025-12-20</title></rect><rect x="270" y="4" width="11" height="11" rx="2" ry="2" fill="#161b22"><title>2025-12-21</title></rect><rect x="270" y="18" width="11" height="11" rx="2" ry="2" fill="#161b22"><title>2025-12-22</title></rect><rect x="270" y="32" width="11" height="11" rx="2" ry="2" fill="#161b22"><title>2025-12-23</title></rect><rect x="270" y="46" width="11" height="11" rx="2" ry="2" fill="#161b22"><title>2025-12-24</title></rect><rect x="270" y="60" width="11" height="11" rx="2" ry="2" fill="#161b22"><title>2025-12-25</title></rect><rect x="270" y="74" width="11" height="11" rx="2" ry="2" fill="#161b22"><title>2025-12-26</title></rect><rect x="270" y="88" width="11" height="11" rx="2" ry="2" fill="#161b22"><title>2025-12-27</title></rect><rect x="284" y="4" width="11" height="11" rx="2" ry="2" fill="#161b22"><title>2025-12-28</title></rect><rect x="284" y="18" width="11" height="11" rx="2" ry="2" fill="#161b22"><title>2025-12-29</title></rect><rect x="284" y="32" width="11" height="11" rx="2" ry="2" fill="#161b22"><title>2025-12-30</title></rect><rect x="284" y="46" width="11" height="11" rx="2" ry="2" fill="#161b22"><title>2025-12-31</title></rect><rect x="284" y="60" width="11" height="11" rx="2" ry="2" fill="#161b22"><title>2026-01-01</title></rect><rect x="284" y="74" width="11" height="11" rx="2" ry="2" fill="#161b22"><title>2026-01-02</title></rect><rect x="284" y="88" width="11" height="11" rx="2" ry="2" fill="#161b22"><title>2026-01-03</title></rect><rect x="298" y="4" width="11" height="11" rx="2" ry="2" fill="#161b22"><title>2026-01-04</title></rect><rect x="298" y="18" width="11" height="11" rx="2" ry="2" fill="#161b22"><title>2026-01-05</title></rect><rect x="298" y="32" width="11" height="11" rx="2" ry="2" fill="#161b22"><title>2026-01-06</title></rect><rect x="298" y="46" width="11" height="11" rx="2" ry="2" fill="#161b22"><title>2026-01-07</title></rect><rect x="298" y="60" width="11" height="11" rx="2" ry="2" fill="#161b22"><title>2026-01-08</title></rect><rect x="298" y="74" width="11" height="11" rx="2" ry="2" fill="#161b22"><title>2026-01-09</title></rect><rect x="298" y="88" width="11" height="11" rx="2" ry="2" fill="#161b22"><title>2026-01-10</title></rect><rect x="312" y="4" width="11" height="11" rx="2" ry="2" fill="#161b22"><title>2026-01-11</title></rect><rect x="312" y="18" width="11" height="11" rx="2" ry="2" fill="#161b22"><title>2026-01-12</title></rect><rect x="312" y="32" width="11" height="11" rx="2" ry="2" fill="#161b22"><title>2026-01-13</title></rect><rect x="312" y="46" width="11" height="11" rx="2" ry="2" fill="#161b22"><title>2026-01-14</title></rect><rect x="312" y="60" width="11" height="11" rx="2" ry="2" fill="#161b22"><title>2026-01-15</title></rect><rect x="312" y="74" width="11" height="11" rx="2" ry="2" fill="#161b22"><title>2026-01-16</title></rect><rect x="312" y="88" width="11" height="11" rx="2" ry="2" fill="#161b22"><title>2026-01-17</title></rect><rect x="326" y="4" width="11" height="11" rx="2" ry="2" fill="#161b22"><title>2026-01-18</title></rect><rect x="326" y="18" width="11" height="11" rx="2" ry="2" fill="#161b22"><title>2026-01-19</title></rect><rect x="326" y="32" width="11" height="11" rx="2" ry="2" fill="#161b22"><title>2026-01-20</title></rect><rect x="326" y="46" width="11" height="11" rx="2" ry="2" fill="#161b22"><title>2026-01-21</title></rect><rect x="326" y="60" width="11" height="11" rx="2" ry="2" fill="#161b22"><title>2026-01-22</title></rect><rect x="326" y="74" width="11" height="11" rx="2" ry="2" fill="#161b22"><title>2026-01-23</title></rect><rect x="326" y="88" width="11" height="11" rx="2" ry="2" fill="#161b22"><title>2026-01-24</title></rect><rect x="340" y="4" width="11" height="11" rx="2" ry="2" fill="#161b22"><title>2026-01-25</title></rect><rect x="340" y="18" width="11" height="11" rx="2" ry="2" fill="#161b22"><title>2026-01-26</title></rect><rect x="340" y="32" width="11" height="11" rx="2" ry="2" fill="#161b22"><title>2026-01-27</title></rect><rect x="340" y="46" width="11" height="11" rx="2" ry="2" fill="#161b22"><title>2026-01-28</title></rect><rect x="340" y="60" width="11" height="11" rx="2" ry="2" fill="#161b22"><title>2026-01-29</title></rect><rect x="340" y="74" width="11" height="11" rx="2" ry="2" fill="#161b22"><title>2026-01-30</title></rect><rect x="340" y="88" width="11" height="11" rx="2" ry="2" fill="#161b22"><title>2026-01-31</title></rect><rect x="354" y="4" width="11" height="11" rx="2" ry="2" fill="#161b22"><title>2026-02-01</title></rect><rect x="354" y="18" width="11" height="11" rx="2" ry="2" fill="#161b22"><title>2026-02-02</title></rect><rect x="354" y="32" width="11" height="11" rx="2" ry="2" fill="#161b22"><title>2026-02-03</title></rect><rect x="354" y="46" width="11" height="11" rx="2" ry="2" fill="#161b22"><title>2026-02-04</title></rect><rect x="354" y="60" width="11" height="11" rx="2" ry="2" fill="#161b22"><title>2026-02-05</title></rect><rect x="354" y="74" width="11" height="11" rx="2" ry="2" fill="#161b22"><title>2026-02-06</title></rect><rect x="354" y="88" width="11" height="11" rx="2" ry="2" fill="#161b22"><title>2026-02-07</title></rect><rect x="368" y="4" width="11" height="11" rx="2" ry="2" fill="#161b22"><title>2026-02-08</title></rect><rect x="368" y="18" width="11" height="11" rx="2" ry="2" fill="#161b22"><title>2026-02-09</title></rect><rect x="368" y="32" width="11" height="11" rx="2" ry="2" fill="#161b22"><title>2026-02-10</title></rect><rect x="368" y="46" width="11" height="11" rx="2" ry="2" fill="#161b22"><title>2026-02-11</title></rect><rect x="368" y="60" width="11" height="11" rx="2" ry="2" fill="#161b22"><title>2026-02-12</title></rect><rect x="368" y="74" width="11" height="11" rx="2" ry="2" fill="#161b22"><title>2026-02-13</title></rect><rect x="368" y="88" width="11" height="11" rx="2" ry="2" fill="#161b22"><title>2026-02-14</title></rect><rect x="382" y="4" width="11" height="11" rx="2" ry="2" fill="#161b22"><title>2026-02-15</title></rect><rect x="382" y="18" width="11" height="11" rx="2" ry="2" fill="#161b22"><title>2026-02-16</title></rect><rect x="382" y="32" width="11" height="11" rx="2" ry="2" fill="#0e4429"><title>2026-02-17</title></rect><rect x="382" y="46" width="11" height="11" rx="2" ry="2" fill="#161b22"><title>2026-02-18</title></rect><rect x="382" y="60" width="11" height="11" rx="2" ry="2" fill="#161b22"><title>2026-02-19</title></rect><rect x="382" y="74" width="11" height="11" rx="2" ry="2" fill="#161b22"><title>2026-02-20</title></rect><rect x="382" y="88" width="11" height="11" rx="2" ry="2" fill="#161b22"><title>2026-02-21</title></rect><rect x="396" y="4" width="11" height="11" rx="2" ry="2" fill="#161b22"><title>2026-02-22</title></rect><rect x="396" y="18" width="11" height="11" rx="2" ry="2" fill="#161b22"><title>2026-02-23</title></rect><rect x="396" y="32" width="11" height="11" rx="2" ry="2" fill="#161b22"><title>2026-02-24</title></rect><rect x="396" y="46" width="11" height="11" rx="2" ry="2" fill="#161b22"><title>2026-02-25</title></rect><rect x="396" y="60" width="11" height="11" rx="2" ry="2" fill="#161b22"><title>2026-02-26</title></rect><rect x="396" y="74" width="11" height="11" rx="2" ry="2" fill="#161b22"><title>2026-02-27</title></rect><rect x="396" y="88" width="11" height="11" rx="2" ry="2" fill="#161b22"><title>2026-02-28</title></rect><rect x="410" y="4" width="11" height="11" rx="2" ry="2" fill="#161b22"><title>2026-03-01</title></rect><rect x="410" y="18" width="11" height="11" rx="2" ry="2" fill="#161b22"><title>2026-03-02</title></rect><rect x="410" y="32" width="11" height="11" rx="2" ry="2" fill="#161b22"><title>2026-03-03</title></rect><rect x="410" y="46" width="11" height="11" rx="2" ry="2" fill="#161b22"><title>2026-03-04</title></rect><rect x="410" y="60" width="11" height="11" rx="2" ry="2" fill="#161b22"><title>2026-03-05</title></rect><rect x="410" y="74" width="11" height="11" rx="2" ry="2" fill="#161b22"><title>2026-03-06</title></rect><rect x="410" y="88" width="11" height="11" rx="2" ry="2" fill="#161b22"><title>2026-03-07</title></rect><rect x="424" y="4" width="11" height="11" rx="2" ry="2" fill="#161b22"><title>2026-03-08</title></rect><rect x="424" y="18" width="11" height="11" rx="2" ry="2" fill="#161b22"><title>2026-03-09</title></rect><rect x="424" y="32" width="11" height="11" rx="2" ry="2" fill="#161b22"><title>2026-03-10</title></rect><rect x="424" y="46" width="11" height="11" rx="2" ry="2" fill="#161b22"><title>2026-03-11</title></rect><rect x="424" y="60" width="11" height="11" rx="2" ry="2" fill="#161b22"><title>2026-03-12</title></rect><rect x="424" y="74" width="11" height="11" rx="2" ry="2" fill="#161b22"><title>2026-03-13</title></rect><rect x="424" y="88" width="11" height="11" rx="2" ry="2" fill="#161b22"><title>2026-03-14</title></rect><rect x="438" y="4" width="11" height="11" rx="2" ry="2" fill="#161b22"><title>2026-03-15</title></rect><rect x="438" y="18" width="11" height="11" rx="2" ry="2" fill="#161b22"><title>2026-03-16</title></rect><rect x="438" y="32" width="11" height="11" rx="2" ry="2" fill="#161b22"><title>2026-03-17</title></rect><rect x="438" y="46" width="11" height="11" rx="2" ry="2" fill="#161b22"><title>2026-03-18</title></rect><rect x="438" y="60" width="11" height="11" rx="2" ry="2" fill="#161b22"><title>2026-03-19</title></rect><rect x="438" y="74" width="11" height="11" rx="2" ry="2" fill="#0e4429"><title>2026-03-20</title></rect><rect x="438" y="88" width="11" height="11" rx="2" ry="2" fill="#0e4429"><title>2026-03-21</title></rect><rect x="452" y="4" width="11" height="11" rx="2" ry="2" fill="#161b22"><title>2026-03-22</title></rect><rect x="452" y="18" width="11" height="11" rx="2" ry="2" fill="#161b22"><title>2026-03-23</title></rect><rect x="452" y="32" width="11" height="11" rx="2" ry="2" fill="#161b22"><title>2026-03-24</title></rect><rect x="452" y="46" width="11" height="11" rx="2" ry="2" fill="#161b22"><title>2026-03-25</title></rect><rect x="452" y="60" width="11" height="11" rx="2" ry="2" fill="#161b22"><title>2026-03-26</title></rect><rect x="452" y="74" width="11" height="11" rx="2" ry="2" fill="#161b22"><title>2026-03-27</title></rect><rect x="452" y="88" width="11" height="11" rx="2" ry="2" fill="#161b22"><title>2026-03-28</title></rect><rect x="466" y="4" width="11" height="11" rx="2" ry="2" fill="#161b22"><title>2026-03-29</title></rect><rect x="466" y="18" width="11" height="11" rx="2" ry="2" fill="#161b22"><title>2026-03-30</title></rect><rect x="466" y="32" width="11" height="11" rx="2" ry="2" fill="#161b22"><title>2026-03-31</title></rect><rect x="466" y="46" width="11" height="11" rx="2" ry="2" fill="#161b22"><title>2026-04-01</title></rect><rect x="466" y="60" width="11" height="11" rx="2" ry="2" fill="#161b22"><title>2026-04-02</title></rect><rect x="466" y="74" width="11" height="11" rx="2" ry="2" fill="#161b22"><title>2026-04-03</title></rect><rect x="466" y="88" width="11" height="11" rx="2" ry="2" fill="#161b22"><title>2026-04-04</title></rect><rect x="480" y="4" width="11" height="11" rx="2" ry="2" fill="#161b22"><title>2026-04-05</title></rect><rect x="480" y="18" width="11" height="11" rx="2" ry="2" fill="#161b22"><title>2026-04-06</title></rect><rect x="480" y="32" width="11" height="11" rx="2" ry="2" fill="#161b22"><title>2026-04-07</title></rect><rect x="480" y="46" width="11" height="11" rx="2" ry="2" fill="#161b22"><title>2026-04-08</title></rect><rect x="480" y="60" width="11" height="11" rx="2" ry="2" fill="#161b22"><title>2026-04-09</title></rect><rect x="480" y="74" width="11" height="11" rx="2" ry="2" fill="#161b22"><title>2026-04-10</title></rect><rect x="480" y="88" width="11" height="11" rx="2" ry="2" fill="#161b22"><title>2026-04-11</title></rect><rect x="494" y="4" width="11" height="11" rx="2" ry="2" fill="#161b22"><title>2026-04-12</title></rect><rect x="494" y="18" width="11" height="11" rx="2" ry="2" fill="#161b22"><title>2026-04-13</title></rect><rect x="494" y="32" width="11" height="11" rx="2" ry="2" fill="#161b22"><title>2026-04-14</title></rect><rect x="494" y="46" width="11" height="11" rx="2" ry="2" fill="#161b22"><title>2026-04-15</title></rect><rect x="494" y="60" width="11" height="11" rx="2" ry="2" fill="#161b22"><title>2026-04-16</title></rect><rect x="494" y="74" width="11" height="11" rx="2" ry="2" fill="#161b22"><title>2026-04-17</title></rect><rect x="494" y="88" width="11" height="11" rx="2" ry="2" fill="#161b22"><title>2026-04-18</title></rect><rect x="508" y="4" width="11" height="11" rx="2" ry="2" fill="#161b22"><title>2026-04-19</title></rect><rect x="508" y="18" width="11" height="11" rx="2" ry="2" fill="#161b22"><title>2026-04-20</title></rect><rect x="508" y="32" width="11" height="11" rx="2" ry="2" fill="#161b22"><title>2026-04-21</title></rect><rect x="508" y="46" width="11" height="11" rx="2" ry="2" fill="#161b22"><title>2026-04-22</title></rect><rect x="508" y="60" width="11" height="11" rx="2" ry="2" fill="#161b22"><title>2026-04-23</title></rect><rect x="508" y="74" width="11" height="11" rx="2" ry="2" fill="#161b22"><title>2026-04-24</title></rect><rect x="508" y="88" width="11" height="11" rx="2" ry="2" fill="#161b22"><title>2026-04-25</title></rect><rect x="522" y="4" width="11" height="11" rx="2" ry="2" fill="#161b22"><title>2026-04-26</title></rect><rect x="522" y="18" width="11" height="11" rx="2" ry="2" fill="#161b22"><title>2026-04-27</title></rect><rect x="522" y="32" width="11" height="11" rx="2" ry="2" fill="#161b22"><title>2026-04-28</title></rect><rect x="522" y="46" width="11" height="11" rx="2" ry="2" fill="#161b22"><title>2026-04-29</title></rect><rect x="522" y="60" width="11" height="11" rx="2" ry="2" fill="#161b22"><title>2026-04-30</title></rect><rect x="522" y="74" width="11" height="11" rx="2" ry="2" fill="#161b22"><title>2026-05-01</title></rect><rect x="522" y="88" width="11" height="11" rx="2" ry="2" fill="#161b22"><title>2026-05-02</title></rect><rect x="536" y="4" width="11" height="11" rx="2" ry="2" fill="#161b22"><title>2026-05-03</title></rect><rect x="536" y="18" width="11" height="11" rx="2" ry="2" fill="#161b22"><title>2026-05-04</title></rect><rect x="536" y="32" width="11" height="11" rx="2" ry="2" fill="#161b22"><title>2026-05-05</title></rect><rect x="536" y="46" width="11" height="11" rx="2" ry="2" fill="#161b22"><title>2026-05-06</title></rect><rect x="536" y="60" width="11" height="11" rx="2" ry="2" fill="#161b22"><title>2026-05-07</title></rect><rect x="536" y="74" width="11" height="11" rx="2" ry="2" fill="#161b22"><title>2026-05-08</title></rect><rect x="536" y="88" width="11" height="11" rx="2" ry="2" fill="#161b22"><title>2026-05-09</title></rect><rect x="550" y="4" width="11" height="11" rx="2" ry="2" fill="#161b22"><title>2026-05-10</title></rect><rect x="550" y="18" width="11" height="11" rx="2" ry="2" fill="#161b22"><title>2026-05-11</title></rect><rect x="550" y="32" width="11" height="11" rx="2" ry="2" fill="#161b22"><title>2026-05-12</title></rect><rect x="550" y="46" width="11" height="11" rx="2" ry="2" fill="#161b22"><title>2026-05-13</title></rect><rect x="550" y="60" width="11" height="11" rx="2" ry="2" fill="#161b22"><title>2026-05-14</title></rect><rect x="550" y="74" width="11" height="11" rx="2" ry="2" fill="#161b22"><title>2026-05-15</title></rect><rect x="550" y="88" width="11" height="11" rx="2" ry="2" fill="#161b22"><title>2026-05-16</title></rect><rect x="564" y="4" width="11" height="11" rx="2" ry="2" fill="#161b22"><title>2026-05-17</title></rect><rect x="564" y="18" width="11" height="11" rx="2" ry="2" fill="#161b22"><title>2026-05-18</title></rect><rect x="564" y="32" width="11" height="11" rx="2" ry="2" fill="#161b22"><title>2026-05-19</title></rect><rect x="564" y="46" width="11" height="11" rx="2" ry="2" fill="#161b22"><title>2026-05-20</title></rect><rect x="564" y="60" width="11" height="11" rx="2" ry="2" fill="#161b22"><title>2026-05-21</title></rect><rect x="564" y="74" width="11" height="11" rx="2" ry="2" fill="#161b22"><title>2026-05-22</title></rect><rect x="564" y="88" width="11" height="11" rx="2" ry="2" fill="#161b22"><title>2026-05-23</title></rect><rect x="578" y="4" width="11" height="11" rx="2" ry="2" fill="#161b22"><title>2026-05-24</title></rect><rect x="578" y="18" width="11" height="11" rx="2" ry="2" fill="#161b22"><title>2026-05-25</title></rect><rect x="578" y="32" width="11" height="11" rx="2" ry="2" fill="#161b22"><title>2026-05-26</title></rect><rect x="578" y="46" width="11" height="11" rx="2" ry="2" fill="#161b22"><title>2026-05-27</title></rect><rect x="578" y="60" width="11" height="11" rx="2" ry="2" fill="#161b22"><title>2026-05-28</title></rect><rect x="578" y="74" width="11" height="11" rx="2" ry="2" fill="#161b22"><title>2026-05-29</title></rect><rect x="578" y="88" width="11" height="11" rx="2" ry="2" fill="#161b22"><title>2026-05-30</title></rect><rect x="592" y="4" width="11" height="11" rx="2" ry="2" fill="#161b22"><title>2026-05-31</title></rect><rect x="592" y="18" width="11" height="11" rx="2" ry="2" fill="#161b22"><title>2026-06-01</title></rect><rect x="592" y="32" width="11" height="11" rx="2" ry="2" fill="#161b22"><title>2026-06-02</title></rect><rect x="592" y="46" width="11" height="11" rx="2" ry="2" fill="#161b22"><title>2026-06-03</title></rect><rect x="592" y="60" width="11" height="11" rx="2" ry="2" fill="#161b22"><title>2026-06-04</title></rect><rect x="592" y="74" width="11" height="11" rx="2" ry="2" fill="#161b22"><title>2026-06-05</title></rect><rect x="592" y="88" width="11" height="11" rx="2" ry="2" fill="#161b22"><title>2026-06-06</title></rect><rect x="606" y="4" width="11" height="11" rx="2" ry="2" fill="#161b22"><title>2026-06-07</title></rect><rect x="606" y="18" width="11" height="11" rx="2" ry="2" fill="#161b22"><title>2026-06-08</title></rect><rect x="606" y="32" width="11" height="11" rx="2" ry="2" fill="#161b22"><title>2026-06-09</title></rect><rect x="606" y="46" width="11" height="11" rx="2" ry="2" fill="#161b22"><title>2026-06-10</title></rect><rect x="606" y="60" width="11" height="11" rx="2" ry="2" fill="#161b22"><title>2026-06-11</title></rect><rect x="606" y="74" width="11" height="11" rx="2" ry="2" fill="#161b22"><title>2026-06-12</title></rect><rect x="606" y="88" width="11" height="11" rx="2" ry="2" fill="#161b22"><title>2026-06-13</title></rect><rect x="620" y="4" width="11" height="11" rx="2" ry="2" fill="#161b22"><title>2026-06-14</title></rect><rect x="620" y="18" width="11" height="11" rx="2" ry="2" fill="#161b22"><title>2026-06-15</title></rect><rect x="620" y="32" width="11" height="11" rx="2" ry="2" fill="#161b22"><title>2026-06-16</title></rect><rect x="620" y="46" width="11" height="11" rx="2" ry="2" fill="#161b22"><title>2026-06-17</title></rect><rect x="620" y="60" width="11" height="11" rx="2" ry="2" fill="#161b22"><title>2026-06-18</title></rect><rect x="620" y="74" width="11" height="11" rx="2" ry="2" fill="#161b22"><title>2026-06-19</title></rect><rect x="620" y="88" width="11" height="11" rx="2" ry="2" fill="#161b22"><title>2026-06-20</title></rect><rect x="634" y="4" width="11" height="11" rx="2" ry="2" fill="#161b22"><title>2026-06-21</title></rect><rect x="634" y="18" width="11" height="11" rx="2" ry="2" fill="#161b22"><title>2026-06-22</title></rect><rect x="634" y="32" width="11" height="11" rx="2" ry="2" fill="#161b22"><title>2026-06-23</title></rect><rect x="634" y="46" width="11" height="11" rx="2" ry="2" fill="#161b22"><title>2026-06-24</title></rect><rect x="634" y="60" width="11" height="11" rx="2" ry="2" fill="#161b22"><title>2026-06-25</title></rect><rect x="634" y="74" width="11" height="11" rx="2" ry="2" fill="#161b22"><title>2026-06-26</title></rect><rect x="634" y="88" width="11" height="11" rx="2" ry="2" fill="#161b22"><title>2026-06-27</title></rect><rect x="648" y="4" width="11" height="11" rx="2" ry="2" fill="#161b22"><title>2026-06-28</title></rect><rect x="648" y="18" width="11" height="11" rx="2" ry="2" fill="#161b22"><title>2026-06-29</title></rect><rect x="648" y="32" width="11" height="11" rx="2" ry="2" fill="#161b22"><title>2026-06-30</title></rect><rect x="648" y="46" width="11" height="11" rx="2" ry="2" fill="#161b22"><title>2026-07-01</title></rect><rect x="648" y="60" width="11" height="11" rx="2" ry="2" fill="#161b22"><title>2026-07-02</title></rect><rect x="648" y="74" width="11" height="11" rx="2" ry="2" fill="#161b22"><title>2026-07-03</title></rect><rect x="648" y="88" width="11" height="11" rx="2" ry="2" fill="#161b22"><title>2026-07-04</title></rect><rect x="662" y="4" width="11" height="11" rx="2" ry="2" fill="#161b22"><title>2026-07-05</title></rect><rect x="662" y="18" width="11" height="11" rx="2" ry="2" fill="#161b22"><title>2026-07-06</title></rect><rect x="662" y="32" width="11" height="11" rx="2" ry="2" fill="#161b22"><title>2026-07-07</title></rect><rect x="662" y="46" width="11" height="11" rx="2" ry="2" fill="#161b22"><title>2026-07-08</title></rect><rect x="662" y="60" width="11" height="11" rx="2" ry="2" fill="#161b22"><title>2026-07-09</title></rect><rect x="662" y="74" width="11" height="11" rx="2" ry="2" fill="#161b22"><title>2026-07-10</title></rect><rect x="662" y="88" width="11" height="11" rx="2" ry="2" fill="#161b22"><title>2026-07-11</title></rect><rect x="676" y="4" width="11" height="11" rx="2" ry="2" fill="#161b22"><title>2026-07-12</title></rect><rect x="676" y="18" width="11" height="11" rx="2" ry="2" fill="#161b22"><title>2026-07-13</title></rect><rect x="676" y="32" width="11" height="11" rx="2" ry="2" fill="#161b22"><title>2026-07-14</title></rect><rect x="676" y="46" width="11" height="11" rx="2" ry="2" fill="#161b22"><title>2026-07-15</title></rect><rect x="676" y="60" width="11" height="11" rx="2" ry="2" fill="#161b22"><title>2026-07-16</title></rect><rect x="676" y="74" width="11" height="11" rx="2" ry="2" fill="#161b22"><title>2026-07-17</title></rect><rect x="676" y="88" width="11" height="11" rx="2" ry="2" fill="#161b22"><title>2026-07-18</title></rect><rect x="690" y="4" width="11" height="11" rx="2" ry="2" fill="#161b22"><title>2026-07-19</title></rect><rect x="690" y="18" width="11" height="11" rx="2" ry="2" fill="#161b22"><title>2026-07-20</title></rect><rect x="690" y="32" width="11" height="11" rx="2" ry="2" fill="#161b22"><title>2026-07-21</title></rect><rect x="690" y="46" width="11" height="11" rx="2" ry="2" fill="#161b22"><title>2026-07-22</title></rect><rect x="690" y="60" width="11" height="11" rx="2" ry="2" fill="#161b22"><title>2026-07-23</title></rect><rect x="690" y="74" width="11" height="11" rx="2" ry="2" fill="#161b22"><title>2026-07-24</title></rect><rect x="690" y="88" width="11" height="11" rx="2" ry="2" fill="#161b22"><title>2026-07-25</title></rect><rect x="704" y="4" width="11" height="11" rx="2" ry="2" fill="#161b22"><title>2026-07-26</title></rect><rect x="704" y="18" width="11" height="11" rx="2" ry="2" fill="#161b22"><title>2026-07-27</title></rect><rect x="704" y="32" width="11" height="11" rx="2" ry="2" fill="#161b22"><title>2026-07-28</title></rect><rect x="704" y="46" width="11" height="11" rx="2" ry="2" fill="#161b22"><title>2026-07-29</title></rect><rect x="704" y="60" width="11" height="11" rx="2" ry="2" fill="#161b22"><title>2026-07-30</title></rect><rect x="704" y="74" width="11" height="11" rx="2" ry="2" fill="#161b22"><title>2026-07-31</title></rect><rect x="704" y="88" width="11" height="11" rx="2" ry="2" fill="#161b22"><title>2026-08-01</title></rect><rect x="718" y="4" width="11" height="11" rx="2" ry="2" fill="#161b22"><title>2026-08-02</title></rect><rect x="718" y="18" width="11" height="11" rx="2" ry="2" fill="#161b22"><title>2026-08-03</title></rect><rect x="718" y="32" width="11" height="11" rx="2" ry="2" fill="#0e4429"><title>2026-08-04</title></rect><rect x="718" y="46" width="11" height="11" rx="2" ry="2" fill="#161b22"><title>2026-08-05</title></rect><rect x="718" y="60" width="11" height="11" rx="2" ry="2" fill="#161b22"><title>2026-08-06</title></rect><rect x="718" y="74" width="11" height="11" rx="2" ry="2" fill="#006d32"><title>2026-08-07</title></rect><rect x="718" y="88" width="11" height="11" rx="2" ry="2" fill="#39d353"><title>2026-08-08</title></rect><rect x="732" y="4" width="11" height="11" rx="2" ry="2" fill="#39d353"><title>2026-08-09</title></rect><rect x="732" y="18" width="11" height="11" rx="2" ry="2" fill="#161b22"><title>2026-08-10</title></rect><rect x="732" y="32" width="11" height="11" rx="2" ry="2" fill="#39d353"><title>2026-08-11</title></rect>
</svg>